<svg xmlns="http://www.w3.org/2000/svg" xmlns:xlink="http://www.w3.org/1999/xlink" width="500" zoomAndPan="magnify" viewBox="0 0 375 374.999991" height="500" preserveAspectRatio="xMidYMid meet" version="1.0"><defs><clipPath id="9c4889c75a"><path d="M 89 52.578125 L 286 52.578125 L 286 327 L 89 327 Z M 89 52.578125 " clip-rule="nonzero"/></clipPath><clipPath id="2d0d9a2232"><path d="M 77.644531 319 L 297.394531 319 L 297.394531 338 L 77.644531 338 Z M 77.644531 319 " clip-rule="nonzero"/></clipPath></defs><path fill="#2f6665" d="M 212.441406 359.691406 C 212.441406 359.691406 222.980469 335.929688 234.480469 331.925781 C 245.976562 327.925781 233.683594 351.648438 233.683594 351.648438 C 233.683594 351.648438 251.425781 325.175781 263.679688 326.164062 C 275.9375 327.152344 237.542969 373.054688 237.542969 373.054688 C 237.542969 373.054688 254.515625 352.074219 268.761719 358.273438 C 283.007812 364.46875 230.339844 384.9375 230.339844 384.9375 C 230.339844 384.9375 265.425781 378.199219 261.332031 390.265625 C 257.234375 402.328125 222.332031 402.152344 219.398438 401.71875 C 216.464844 401.289062 212.441406 359.691406 212.441406 359.691406 Z M 212.441406 359.691406 " fill-opacity="1" fill-rule="nonzero"/><path fill="#adbe1c" d="M 174.019531 387.007812 C 175.4375 383.269531 175.945312 354.035156 162.683594 350.273438 C 149.425781 346.511719 160.085938 374.667969 160.085938 374.667969 C 160.085938 374.667969 137.039062 321.035156 126.644531 328.898438 C 116.25 336.757812 141.164062 373.183594 141.164062 373.183594 C 141.164062 373.183594 110.203125 340.886719 107.371094 357.9375 C 104.542969 374.992188 137.019531 387.234375 137.019531 387.234375 C 137.019531 387.234375 108.382812 378.699219 111.507812 388.015625 C 114.636719 397.332031 148.773438 407.234375 156.972656 402.953125 C 165.171875 398.675781 174.019531 387.007812 174.019531 387.007812 Z M 174.019531 387.007812 " fill-opacity="1" fill-rule="nonzero"/><path fill="#bdd8ef" d="M 156.640625 329.363281 L 224.113281 329.363281 L 224.113281 402.730469 L 156.640625 402.730469 Z M 156.640625 329.363281 " fill-opacity="1" fill-rule="nonzero"/><path fill="#2f6665" d="M 179.113281 403.335938 C 179.113281 403.335938 193 371.246094 185.332031 361.820312 C 177.664062 352.394531 169.746094 376.101562 169.746094 376.101562 C 169.746094 376.101562 170.066406 363.984375 160.925781 362.144531 C 151.78125 360.300781 155.839844 403.902344 155.839844 403.902344 Z M 179.113281 403.335938 " fill-opacity="1" fill-rule="nonzero"/><g clip-path="url(#9c4889c75a)"><path fill="#ff3222" d="M 285.703125 326.136719 C 220.242188 326.136719 154.78125 326.136719 89.320312 326.136719 C 89.320312 267.679688 89.320312 209.222656 89.320312 150.769531 C 89.320312 96.601562 133.28125 52.691406 187.511719 52.691406 C 241.742188 52.691406 285.703125 96.601562 285.703125 150.769531 C 285.703125 209.222656 285.703125 267.679688 285.703125 326.136719 Z M 285.703125 326.136719 " fill-opacity="1" fill-rule="nonzero"/></g><path fill="#a41800" d="M 267.828125 330.941406 L 107.195312 330.941406 C 106.324219 330.941406 105.617188 330.234375 105.617188 329.363281 L 105.617188 157.804688 C 105.617188 112.699219 142.355469 76.003906 187.511719 76.003906 C 209.386719 76.003906 229.953125 84.511719 245.421875 99.960938 C 260.886719 115.414062 269.40625 135.953125 269.40625 157.804688 L 269.40625 329.363281 C 269.40625 330.234375 268.699219 330.941406 267.828125 330.941406 Z M 108.777344 327.785156 L 266.246094 327.785156 L 266.246094 157.804688 C 266.246094 136.796875 258.058594 117.046875 243.1875 102.195312 C 228.316406 87.339844 208.542969 79.160156 187.511719 79.160156 C 144.097656 79.160156 108.777344 114.4375 108.777344 157.804688 Z M 108.777344 327.785156 " fill-opacity="1" fill-rule="nonzero"/><g clip-path="url(#2d0d9a2232)"><path fill="#ff3222" d="M 77.640625 319.964844 L 297.382812 319.964844 L 297.382812 337.109375 L 77.640625 337.109375 Z M 77.640625 319.964844 " fill-opacity="1" fill-rule="nonzero"/></g><path fill="#a41800" d="M 285.703125 321.542969 L 89.320312 321.542969 C 88.449219 321.542969 87.742188 320.835938 87.742188 319.964844 C 87.742188 319.09375 88.449219 318.386719 89.320312 318.386719 L 285.703125 318.386719 C 286.574219 318.386719 287.28125 319.09375 287.28125 319.964844 C 287.28125 320.835938 286.574219 321.542969 285.703125 321.542969 Z M 285.703125 321.542969 " fill-opacity="1" fill-rule="nonzero"/><path fill="#a41800" d="M 243.3125 163.1875 L 129.558594 163.1875 C 128.6875 163.1875 127.980469 162.480469 127.980469 161.609375 L 127.980469 146.289062 C 127.980469 145.417969 128.6875 144.710938 129.558594 144.710938 L 243.3125 144.710938 C 244.1875 144.710938 244.894531 145.417969 244.894531 146.289062 L 244.894531 161.609375 C 244.894531 162.480469 244.1875 163.1875 243.3125 163.1875 Z M 131.136719 160.03125 L 241.734375 160.03125 L 241.734375 147.867188 L 131.136719 147.867188 Z M 131.136719 160.03125 " fill-opacity="1" fill-rule="nonzero"/><path fill="#a41800" d="M 245.859375 321.542969 L 132.101562 321.542969 C 131.230469 321.542969 130.523438 320.835938 130.523438 319.964844 L 130.523438 237.335938 C 130.523438 236.464844 131.230469 235.757812 132.101562 235.757812 L 245.859375 235.757812 C 246.730469 235.757812 247.4375 236.464844 247.4375 237.335938 L 247.4375 319.964844 C 247.4375 320.835938 246.730469 321.542969 245.859375 321.542969 Z M 133.683594 318.386719 L 244.277344 318.386719 L 244.277344 238.914062 L 133.683594 238.914062 Z M 133.683594 318.386719 " fill-opacity="1" fill-rule="nonzero"/><path fill="#a41800" d="M 196.886719 258.140625 C 197.023438 258.476562 197.128906 258.820312 197.199219 259.175781 C 197.273438 259.535156 197.308594 259.894531 197.308594 260.257812 C 197.308594 260.621094 197.273438 260.980469 197.199219 261.335938 C 197.128906 261.691406 197.023438 262.039062 196.886719 262.371094 C 196.746094 262.707031 196.578125 263.027344 196.375 263.328125 C 196.171875 263.632812 195.941406 263.910156 195.6875 264.167969 C 195.429688 264.425781 195.148438 264.652344 194.847656 264.855469 C 194.542969 265.058594 194.226562 265.226562 193.890625 265.367188 C 193.554688 265.503906 193.207031 265.609375 192.851562 265.679688 C 192.492188 265.753906 192.132812 265.789062 191.769531 265.789062 C 191.40625 265.789062 191.046875 265.753906 190.691406 265.679688 C 190.332031 265.609375 189.988281 265.503906 189.652344 265.367188 C 189.316406 265.226562 188.996094 265.058594 188.695312 264.855469 C 188.390625 264.652344 188.113281 264.425781 187.855469 264.167969 C 187.597656 263.910156 187.367188 263.632812 187.167969 263.328125 C 186.964844 263.027344 186.792969 262.707031 186.65625 262.371094 C 186.515625 262.039062 186.410156 261.691406 186.339844 261.335938 C 186.269531 260.980469 186.234375 260.621094 186.234375 260.257812 C 186.234375 259.894531 186.269531 259.535156 186.339844 259.175781 C 186.410156 258.820312 186.515625 258.476562 186.65625 258.140625 C 186.792969 257.804688 186.964844 257.484375 187.167969 257.183594 C 187.367188 256.882812 187.597656 256.601562 187.855469 256.34375 C 188.113281 256.089844 188.390625 255.859375 188.695312 255.65625 C 188.996094 255.457031 189.316406 255.285156 189.652344 255.144531 C 189.988281 255.007812 190.332031 254.902344 190.691406 254.832031 C 191.046875 254.761719 191.40625 254.726562 191.769531 254.726562 C 192.132812 254.726562 192.492188 254.761719 192.851562 254.832031 C 193.207031 254.902344 193.554688 255.007812 193.890625 255.144531 C 194.226562 255.285156 194.542969 255.457031 194.847656 255.65625 C 195.148438 255.859375 195.429688 256.089844 195.6875 256.34375 C 195.941406 256.601562 196.171875 256.882812 196.375 257.183594 C 196.578125 257.484375 196.746094 257.804688 196.886719 258.140625 Z M 196.886719 258.140625 " fill-opacity="1" fill-rule="nonzero"/><path fill="#a41800" d="M 189.042969 263.257812 L 186.234375 274.460938 L 196.902344 274.460938 L 194.269531 262.839844 Z M 189.042969 263.257812 " fill-opacity="1" fill-rule="nonzero"/><path fill="#f7e7da" d="M 186.613281 112.175781 C 186.597656 113.300781 181.457031 100.289062 173.253906 100.402344 C 160.4375 100.582031 168.6875 114.117188 185.730469 128.863281 C 185.730469 128.863281 205.519531 122.347656 205.863281 105.890625 C 206.207031 89.429688 186.734375 104.976562 186.613281 112.175781 Z M 186.613281 112.175781 " fill-opacity="1" fill-rule="nonzero"/><path fill="#f7e7da" d="M 151.957031 227.332031 C 152.1875 226.394531 152.390625 225.535156 152.570312 224.757812 C 152.75 223.976562 152.914062 223.242188 153.066406 222.554688 C 153.21875 221.867188 153.359375 221.203125 153.492188 220.558594 C 153.625 219.917969 153.757812 219.269531 153.890625 218.617188 C 154.023438 217.964844 154.164062 217.285156 154.308594 216.582031 C 154.453125 215.875 154.613281 215.105469 154.785156 214.273438 L 155.617188 210.25 C 155.757812 209.570312 155.851562 208.980469 155.90625 208.492188 C 155.957031 208 155.984375 207.546875 155.984375 207.128906 C 155.984375 206.691406 155.996094 206.300781 156.019531 205.957031 C 156.039062 205.617188 156.105469 205.328125 156.207031 205.09375 C 156.3125 204.855469 156.464844 204.675781 156.667969 204.554688 C 156.871094 204.433594 157.152344 204.371094 157.511719 204.371094 C 158.03125 204.371094 158.4375 204.445312 158.726562 204.589844 C 159.015625 204.734375 159.230469 204.921875 159.367188 205.152344 C 159.507812 205.382812 159.589844 205.648438 159.621094 205.949219 C 159.648438 206.25 159.664062 206.5625 159.664062 206.886719 C 160.058594 206.609375 160.515625 206.359375 161.042969 206.140625 C 161.570312 205.921875 162.117188 205.738281 162.683594 205.59375 C 163.25 205.449219 163.824219 205.335938 164.402344 205.257812 C 164.980469 205.175781 165.527344 205.136719 166.035156 205.136719 C 166.867188 205.136719 167.597656 205.28125 168.222656 205.578125 C 168.847656 205.871094 169.367188 206.265625 169.785156 206.757812 C 170.203125 207.246094 170.515625 207.8125 170.722656 208.457031 C 170.929688 209.097656 171.035156 209.757812 171.035156 210.441406 C 171.035156 211.238281 170.90625 211.992188 170.652344 212.695312 C 170.398438 213.402344 170.050781 214.058594 169.609375 214.671875 C 169.171875 215.285156 168.660156 215.855469 168.074219 216.378906 C 167.488281 216.90625 166.859375 217.390625 166.183594 217.828125 C 165.503906 218.269531 164.804688 218.667969 164.082031 219.035156 C 163.359375 219.398438 162.644531 219.726562 161.9375 220.011719 C 161.464844 220.210938 161.015625 220.359375 160.59375 220.457031 C 160.167969 220.554688 159.789062 220.601562 159.453125 220.601562 C 158.980469 220.601562 158.519531 220.550781 158.074219 220.445312 C 157.628906 220.34375 157.199219 220.167969 156.78125 219.925781 C 156.550781 220.714844 156.355469 221.464844 156.199219 222.179688 C 156.042969 222.898438 155.917969 223.535156 155.828125 224.089844 C 155.769531 224.433594 155.699219 224.800781 155.617188 225.179688 C 155.539062 225.5625 155.457031 225.933594 155.375 226.300781 C 155.292969 226.664062 155.214844 227.007812 155.140625 227.332031 C 155.066406 227.65625 155.003906 227.933594 154.960938 228.164062 C 154.925781 228.300781 154.839844 228.417969 154.707031 228.511719 C 154.574219 228.601562 154.414062 228.679688 154.230469 228.746094 C 154.042969 228.808594 153.855469 228.855469 153.664062 228.882812 C 153.472656 228.910156 153.304688 228.925781 153.152344 228.925781 C 152.296875 228.925781 151.867188 228.589844 151.867188 227.921875 C 151.867188 227.734375 151.898438 227.539062 151.957031 227.332031 Z M 157.335938 217.273438 C 157.511719 217.296875 157.695312 217.324219 157.894531 217.359375 C 158.089844 217.394531 158.28125 217.429688 158.464844 217.464844 C 158.652344 217.5 158.808594 217.53125 158.941406 217.558594 C 159.074219 217.589844 159.164062 217.601562 159.210938 217.601562 C 159.433594 217.601562 159.679688 217.574219 159.949219 217.515625 C 160.222656 217.457031 160.492188 217.382812 160.765625 217.289062 C 161.039062 217.199219 161.300781 217.097656 161.554688 216.988281 C 161.808594 216.878906 162.035156 216.769531 162.234375 216.667969 C 162.800781 216.378906 163.40625 216.027344 164.046875 215.617188 C 164.6875 215.207031 165.285156 214.734375 165.835938 214.203125 C 166.382812 213.671875 166.839844 213.078125 167.199219 212.417969 C 167.558594 211.757812 167.734375 211.03125 167.734375 210.234375 C 167.734375 209.910156 167.695312 209.609375 167.613281 209.332031 C 167.535156 209.054688 167.410156 208.8125 167.25 208.601562 C 167.089844 208.394531 166.875 208.230469 166.617188 208.109375 C 166.355469 207.988281 166.046875 207.925781 165.6875 207.925781 C 165.292969 207.925781 164.925781 207.953125 164.578125 208.003906 C 164.230469 208.058594 163.886719 208.140625 163.550781 208.257812 C 163.214844 208.371094 162.878906 208.519531 162.546875 208.699219 C 162.210938 208.878906 161.863281 209.09375 161.503906 209.347656 C 161.179688 209.613281 160.816406 209.847656 160.410156 210.050781 C 160.003906 210.253906 159.566406 210.382812 159.089844 210.441406 Z M 157.335938 217.273438 " fill-opacity="1" fill-rule="nonzero"/><path fill="#f7e7da" d="M 173.707031 214.273438 C 173.882812 213.570312 174.152344 212.820312 174.515625 212.027344 C 174.878906 211.238281 175.355469 210.433594 175.949219 209.625 C 176.539062 208.816406 177.246094 208.027344 178.074219 207.25 C 178.902344 206.476562 179.859375 205.753906 180.945312 205.082031 C 181.121094 204.980469 181.386719 204.867188 181.746094 204.746094 C 182.105469 204.625 182.476562 204.550781 182.855469 204.527344 C 183.308594 204.042969 183.914062 203.800781 184.679688 203.800781 C 185.582031 203.800781 186.34375 204.027344 186.960938 204.484375 C 187.582031 204.941406 188.09375 205.5625 188.5 206.347656 C 188.625 206.601562 188.746094 206.851562 188.855469 207.09375 C 188.964844 207.335938 189.058594 207.59375 189.132812 207.867188 C 189.207031 208.136719 189.269531 208.429688 189.316406 208.742188 C 189.359375 209.054688 189.382812 209.40625 189.382812 209.800781 C 189.382812 210.714844 189.238281 211.644531 188.949219 212.589844 C 188.660156 213.539062 188.25 214.464844 187.71875 215.367188 C 187.183594 216.269531 186.539062 217.132812 185.78125 217.957031 C 185.023438 218.785156 184.183594 219.527344 183.257812 220.1875 C 182.632812 220.636719 181.9375 220.988281 181.183594 221.234375 C 180.421875 221.484375 179.574219 221.609375 178.636719 221.609375 C 177.746094 221.609375 176.972656 221.488281 176.320312 221.253906 C 175.667969 221.015625 175.121094 220.679688 174.6875 220.238281 C 174.253906 219.800781 173.929688 219.273438 173.714844 218.660156 C 173.503906 218.046875 173.394531 217.367188 173.394531 216.613281 C 173.394531 215.886719 173.5 215.105469 173.707031 214.273438 Z M 176.589844 214.5 C 176.519531 214.765625 176.472656 215.015625 176.441406 215.253906 C 176.414062 215.492188 176.398438 215.71875 176.398438 215.9375 C 176.398438 216.320312 176.449219 216.675781 176.546875 217.003906 C 176.644531 217.335938 176.804688 217.617188 177.023438 217.855469 C 177.242188 218.089844 177.519531 218.277344 177.847656 218.410156 C 178.179688 218.542969 178.582031 218.609375 179.054688 218.609375 C 179.933594 218.609375 180.753906 218.386719 181.511719 217.941406 C 182.269531 217.496094 182.945312 216.9375 183.535156 216.269531 C 184.125 215.597656 184.617188 214.878906 185.019531 214.109375 C 185.417969 213.339844 185.699219 212.632812 185.859375 211.984375 C 185.964844 211.582031 186.054688 211.199219 186.128906 210.839844 C 186.203125 210.480469 186.242188 210.152344 186.242188 209.851562 C 186.242188 209.550781 186.1875 209.269531 186.078125 209.011719 C 185.96875 208.75 185.824219 208.457031 185.652344 208.136719 C 185.546875 207.9375 185.445312 207.734375 185.339844 207.519531 C 185.234375 207.304688 185.144531 207.09375 185.0625 206.886719 C 184.96875 207.046875 184.871094 207.191406 184.765625 207.3125 C 184.664062 207.433594 184.507812 207.542969 184.296875 207.640625 C 184.089844 207.738281 183.804688 207.828125 183.449219 207.910156 C 183.089844 207.992188 182.621094 208.058594 182.039062 208.117188 C 181.660156 208.246094 181.269531 208.441406 180.878906 208.707031 C 180.484375 208.972656 180.097656 209.285156 179.722656 209.644531 C 179.347656 210.003906 178.988281 210.390625 178.648438 210.804688 C 178.304688 211.222656 178 211.648438 177.726562 212.078125 C 177.453125 212.515625 177.21875 212.9375 177.015625 213.355469 C 176.8125 213.769531 176.671875 214.152344 176.589844 214.5 Z M 176.589844 214.5 " fill-opacity="1" fill-rule="nonzero"/><path fill="#f7e7da" d="M 192.753906 217.847656 C 192.84375 217.847656 192.929688 217.859375 193.003906 217.878906 C 193.078125 217.902344 193.164062 217.929688 193.257812 217.957031 C 193.347656 217.988281 193.453125 218.015625 193.570312 218.035156 C 193.683594 218.058594 193.835938 218.070312 194.019531 218.070312 C 194.5625 218.070312 195.167969 218.015625 195.835938 217.898438 C 196.5 217.78125 197.128906 217.632812 197.71875 217.445312 C 198.308594 217.261719 198.8125 217.050781 199.238281 216.8125 C 199.660156 216.578125 199.898438 216.332031 199.957031 216.078125 C 199.992188 215.9375 200.007812 215.816406 200.007812 215.710938 C 200.007812 215.515625 199.914062 215.328125 199.722656 215.148438 C 199.53125 214.96875 199.292969 214.800781 199.003906 214.636719 C 198.714844 214.476562 198.402344 214.324219 198.066406 214.1875 C 197.730469 214.046875 197.417969 213.921875 197.128906 213.804688 L 196.539062 213.5625 C 196.234375 213.445312 195.941406 213.304688 195.652344 213.136719 C 195.363281 212.96875 195.09375 212.777344 194.84375 212.558594 C 194.597656 212.335938 194.375 212.078125 194.183594 211.785156 C 193.992188 211.492188 193.851562 211.152344 193.757812 210.769531 C 193.714844 210.609375 193.675781 210.449219 193.648438 210.285156 C 193.617188 210.125 193.601562 209.949219 193.601562 209.765625 C 193.601562 209.464844 193.703125 209.121094 193.90625 208.734375 C 194.109375 208.347656 194.382812 207.960938 194.722656 207.582031 C 195.0625 207.199219 195.453125 206.835938 195.886719 206.488281 C 196.320312 206.140625 196.773438 205.851562 197.25 205.621094 C 197.597656 205.378906 197.933594 205.160156 198.257812 204.960938 C 198.578125 204.765625 198.90625 204.597656 199.238281 204.457031 C 199.566406 204.320312 199.902344 204.210938 200.242188 204.128906 C 200.585938 204.046875 200.945312 204.007812 201.328125 204.007812 C 201.675781 204.007812 202.050781 204.027344 202.457031 204.058594 C 202.863281 204.09375 203.234375 204.175781 203.566406 204.304688 C 203.902344 204.429688 204.183594 204.617188 204.410156 204.867188 C 204.636719 205.113281 204.75 205.445312 204.75 205.863281 C 204.75 205.992188 204.730469 206.15625 204.695312 206.367188 C 204.660156 206.574219 204.605469 206.78125 204.523438 206.992188 C 204.441406 207.199219 204.34375 207.378906 204.226562 207.527344 C 204.113281 207.679688 203.972656 207.753906 203.8125 207.753906 C 203.546875 207.753906 203.324219 207.703125 203.152344 207.597656 C 202.976562 207.492188 202.820312 207.382812 202.683594 207.257812 C 202.542969 207.136719 202.398438 207.023438 202.25 206.921875 C 202.097656 206.816406 201.914062 206.765625 201.691406 206.765625 C 201.425781 206.765625 201.117188 206.816406 200.765625 206.914062 C 200.410156 207.011719 200.050781 207.144531 199.679688 207.3125 C 199.308594 207.480469 198.949219 207.671875 198.59375 207.890625 C 198.242188 208.113281 197.921875 208.335938 197.640625 208.570312 C 197.355469 208.800781 197.128906 209.027344 196.953125 209.253906 C 196.78125 209.480469 196.695312 209.683594 196.695312 209.871094 C 196.695312 210.066406 196.757812 210.226562 196.882812 210.355469 C 197.011719 210.480469 197.175781 210.59375 197.371094 210.683594 C 197.625 210.824219 197.917969 210.960938 198.246094 211.101562 C 198.578125 211.238281 198.910156 211.378906 199.246094 211.515625 C 199.582031 211.65625 199.90625 211.792969 200.226562 211.933594 C 200.542969 212.070312 200.820312 212.199219 201.050781 212.3125 C 201.363281 212.476562 201.644531 212.636719 201.894531 212.792969 C 202.140625 212.945312 202.351562 213.117188 202.527344 213.300781 C 202.699219 213.488281 202.832031 213.695312 202.925781 213.925781 C 203.019531 214.15625 203.066406 214.429688 203.066406 214.742188 C 203.066406 214.890625 203.054688 215.042969 203.03125 215.191406 C 203.007812 215.34375 202.972656 215.515625 202.925781 215.710938 C 202.890625 215.886719 202.832031 216.089844 202.742188 216.320312 C 202.65625 216.550781 202.5625 216.78125 202.464844 217.003906 C 202.367188 217.230469 202.265625 217.433594 202.164062 217.613281 C 202.058594 217.789062 201.972656 217.910156 201.902344 217.96875 C 201.449219 218.382812 200.917969 218.773438 200.304688 219.136719 C 199.691406 219.5 199.050781 219.820312 198.386719 220.089844 C 197.71875 220.363281 197.054688 220.582031 196.390625 220.742188 C 195.722656 220.902344 195.113281 220.984375 194.558594 220.984375 C 194.28125 220.984375 193.972656 220.929688 193.636719 220.820312 C 193.300781 220.710938 192.992188 220.566406 192.710938 220.386719 C 192.425781 220.207031 192.1875 220.003906 191.996094 219.769531 C 191.804688 219.539062 191.710938 219.308594 191.710938 219.078125 C 191.710938 218.960938 191.746094 218.832031 191.816406 218.6875 C 191.886719 218.542969 191.972656 218.410156 192.074219 218.289062 C 192.179688 218.167969 192.292969 218.0625 192.414062 217.976562 C 192.535156 217.890625 192.648438 217.847656 192.753906 217.847656 Z M 192.753906 217.847656 " fill-opacity="1" fill-rule="nonzero"/><path fill="#f7e7da" d="M 209.523438 215.523438 C 209.523438 214.550781 209.632812 213.542969 209.851562 212.496094 C 210.070312 211.449219 210.304688 210.449219 210.546875 209.488281 C 210.246094 209.476562 209.9375 209.429688 209.625 209.347656 C 209.3125 209.269531 209.03125 209.160156 208.777344 209.019531 C 208.519531 208.882812 208.3125 208.710938 208.152344 208.507812 C 207.988281 208.304688 207.910156 208.070312 207.910156 207.804688 C 207.910156 207.703125 207.929688 207.570312 207.976562 207.40625 C 208.023438 207.246094 208.089844 207.085938 208.175781 206.929688 C 208.265625 206.773438 208.375 206.640625 208.515625 206.53125 C 208.65625 206.421875 208.8125 206.367188 208.984375 206.367188 L 211.3125 206.367188 C 211.53125 206.367188 211.679688 206.269531 211.761719 206.082031 C 211.84375 205.890625 211.90625 205.703125 211.953125 205.515625 C 212.105469 204.847656 212.246094 204.265625 212.378906 203.773438 C 212.511719 203.28125 212.625 202.867188 212.71875 202.527344 C 212.808594 202.183594 212.882812 201.90625 212.933594 201.691406 C 212.984375 201.480469 213.011719 201.308594 213.011719 201.179688 C 213.011719 201.03125 213.007812 200.886719 212.996094 200.746094 C 212.984375 200.609375 212.976562 200.417969 212.976562 200.175781 L 212.976562 200.003906 C 212.976562 199.910156 212.984375 199.789062 213.003906 199.636719 C 213.019531 199.488281 213.074219 199.273438 213.167969 198.996094 C 213.238281 198.777344 213.367188 198.570312 213.550781 198.371094 C 213.734375 198.175781 214.007812 198.078125 214.367188 198.078125 C 214.679688 198.078125 214.945312 198.140625 215.164062 198.269531 C 215.382812 198.394531 215.5625 198.5625 215.703125 198.769531 C 215.84375 198.980469 215.945312 199.214844 216.015625 199.480469 C 216.085938 199.75 216.121094 200.015625 216.121094 200.28125 C 216.121094 200.570312 216.089844 200.828125 216.03125 201.058594 L 214.765625 205.914062 C 215.390625 205.8125 215.945312 205.714844 216.433594 205.621094 C 216.917969 205.527344 217.40625 205.4375 217.890625 205.34375 C 218.421875 205.238281 218.882812 205.140625 219.269531 205.046875 C 219.660156 204.957031 219.992188 204.878906 220.269531 204.816406 C 220.546875 204.75 220.78125 204.699219 220.972656 204.65625 C 221.164062 204.617188 221.320312 204.597656 221.449219 204.597656 C 221.632812 204.597656 221.824219 204.613281 222.011719 204.640625 C 222.203125 204.671875 222.371094 204.71875 222.515625 204.789062 C 222.660156 204.859375 222.78125 204.957031 222.871094 205.082031 C 222.964844 205.210938 223.011719 205.378906 223.011719 205.585938 C 223.011719 205.863281 222.957031 206.109375 222.847656 206.324219 C 222.738281 206.535156 222.59375 206.722656 222.421875 206.878906 C 222.246094 207.035156 222.050781 207.160156 221.832031 207.257812 C 221.613281 207.359375 221.390625 207.429688 221.171875 207.476562 C 220.988281 207.511719 220.746094 207.5625 220.453125 207.632812 C 220.15625 207.703125 219.832031 207.777344 219.480469 207.859375 C 219.125 207.9375 218.757812 208.027344 218.375 208.117188 C 217.996094 208.210938 217.625 208.304688 217.265625 208.394531 C 216.734375 208.535156 216.277344 208.648438 215.902344 208.742188 C 215.527344 208.835938 215.207031 208.902344 214.9375 208.949219 C 214.671875 208.996094 214.457031 209.03125 214.289062 209.054688 C 214.121094 209.078125 213.984375 209.089844 213.878906 209.089844 C 213.660156 209.746094 213.46875 210.394531 213.308594 211.03125 C 213.144531 211.667969 213.007812 212.257812 212.898438 212.808594 C 212.789062 213.359375 212.707031 213.847656 212.65625 214.28125 C 212.605469 214.714844 212.578125 215.054688 212.578125 215.296875 C 212.578125 215.609375 212.605469 215.90625 212.664062 216.191406 C 212.722656 216.472656 212.820312 216.71875 212.960938 216.925781 C 213.097656 217.136719 213.285156 217.300781 213.523438 217.421875 C 213.761719 217.542969 214.058594 217.601562 214.417969 217.601562 C 215.03125 217.601562 215.632812 217.4375 216.222656 217.101562 C 216.8125 216.765625 217.378906 216.339844 217.917969 215.824219 C 218.453125 215.3125 218.964844 214.746094 219.445312 214.136719 C 219.925781 213.523438 220.367188 212.9375 220.773438 212.382812 C 220.910156 212.175781 221.089844 212.070312 221.308594 212.070312 C 221.378906 212.070312 221.464844 212.082031 221.5625 212.105469 C 221.660156 212.128906 221.757812 212.167969 221.847656 212.226562 C 221.941406 212.285156 222.019531 212.359375 222.082031 212.453125 C 222.148438 212.546875 222.179688 212.65625 222.179688 212.78125 C 222.179688 212.875 222.171875 212.945312 222.160156 212.992188 C 221.976562 213.707031 221.6875 214.425781 221.300781 215.148438 C 220.914062 215.871094 220.515625 216.597656 220.113281 217.324219 C 219.972656 217.578125 219.792969 217.828125 219.566406 218.070312 C 219.339844 218.3125 219.09375 218.546875 218.828125 218.773438 C 218.5625 219 218.285156 219.214844 217.996094 219.414062 C 217.707031 219.617188 217.433594 219.800781 217.179688 219.960938 C 216.738281 220.238281 216.257812 220.429688 215.738281 220.535156 C 215.21875 220.636719 214.714844 220.691406 214.226562 220.691406 C 213.476562 220.691406 212.808594 220.554688 212.222656 220.28125 C 211.636719 220.011719 211.144531 219.640625 210.746094 219.171875 C 210.347656 218.703125 210.042969 218.15625 209.835938 217.535156 C 209.625 216.910156 209.523438 216.238281 209.523438 215.523438 Z M 209.523438 215.523438 " fill-opacity="1" fill-rule="nonzero"/><path fill="#f7e7da" d="M 163.570312 171.226562 C 163.625 170.761719 163.71875 170.335938 163.847656 169.941406 C 163.972656 169.546875 164.144531 169.222656 164.359375 168.960938 C 164.574219 168.703125 164.847656 168.570312 165.183594 168.570312 C 165.367188 168.570312 165.574219 168.605469 165.800781 168.675781 C 166.023438 168.746094 166.238281 168.839844 166.441406 168.960938 C 166.644531 169.082031 166.816406 169.230469 166.953125 169.402344 C 167.09375 169.578125 167.164062 169.769531 167.164062 169.976562 C 167.164062 170.070312 167.144531 170.175781 167.109375 170.296875 C 167.074219 170.417969 167.046875 170.535156 167.023438 170.652344 L 162.683594 188.027344 C 162.511719 188.722656 162.363281 189.382812 162.25 190.011719 C 162.132812 190.644531 162.046875 191.160156 161.988281 191.566406 L 161.988281 191.980469 C 161.988281 192.328125 161.964844 192.707031 161.917969 193.117188 C 161.875 193.527344 161.785156 193.910156 161.660156 194.261719 C 161.53125 194.613281 161.355469 194.910156 161.128906 195.144531 C 160.902344 195.382812 160.613281 195.5 160.253906 195.5 C 159.941406 195.5 159.667969 195.433594 159.4375 195.300781 C 159.207031 195.167969 159.015625 195 158.863281 194.789062 C 158.714844 194.582031 158.605469 194.359375 158.535156 194.125 C 158.464844 193.886719 158.429688 193.664062 158.429688 193.457031 C 158.429688 193.269531 158.449219 193.042969 158.480469 192.769531 C 158.515625 192.5 158.558594 192.214844 158.613281 191.921875 C 158.664062 191.625 158.71875 191.332031 158.777344 191.035156 C 158.835938 190.742188 158.894531 190.484375 158.953125 190.265625 L 163.429688 172.507812 C 163.464844 172.113281 163.511719 171.6875 163.570312 171.226562 Z M 163.570312 171.226562 " fill-opacity="1" fill-rule="nonzero"/><path fill="#f7e7da" d="M 167.40625 188.355469 C 167.578125 187.652344 167.847656 186.902344 168.214844 186.113281 C 168.578125 185.320312 169.054688 184.519531 169.644531 183.710938 C 170.234375 182.902344 170.945312 182.109375 171.773438 181.335938 C 172.597656 180.558594 173.558594 179.835938 174.644531 179.167969 C 174.820312 179.0625 175.085938 178.949219 175.445312 178.828125 C 175.800781 178.707031 176.171875 178.636719 176.554688 178.613281 C 177.003906 178.125 177.613281 177.882812 178.378906 177.882812 C 179.28125 177.882812 180.039062 178.113281 180.660156 178.566406 C 181.277344 179.023438 181.792969 179.648438 182.195312 180.433594 C 182.324219 180.6875 182.441406 180.933594 182.550781 181.179688 C 182.664062 181.421875 182.753906 181.679688 182.832031 181.949219 C 182.90625 182.222656 182.964844 182.511719 183.011719 182.824219 C 183.058594 183.136719 183.082031 183.492188 183.082031 183.882812 C 183.082031 184.796875 182.9375 185.726562 182.648438 186.675781 C 182.359375 187.625 181.949219 188.546875 181.414062 189.449219 C 180.882812 190.351562 180.238281 191.214844 179.480469 192.042969 C 178.722656 192.867188 177.878906 193.613281 176.953125 194.269531 C 176.328125 194.722656 175.636719 195.070312 174.878906 195.320312 C 174.121094 195.566406 173.273438 195.691406 172.335938 195.691406 C 171.445312 195.691406 170.671875 195.574219 170.019531 195.335938 C 169.363281 195.101562 168.820312 194.761719 168.386719 194.324219 C 167.953125 193.882812 167.628906 193.355469 167.414062 192.746094 C 167.199219 192.132812 167.09375 191.449219 167.09375 190.699219 C 167.09375 189.96875 167.199219 189.191406 167.40625 188.355469 Z M 170.289062 188.582031 C 170.21875 188.847656 170.167969 189.101562 170.140625 189.335938 C 170.109375 189.574219 170.097656 189.800781 170.097656 190.023438 C 170.097656 190.402344 170.144531 190.757812 170.242188 191.089844 C 170.34375 191.417969 170.5 191.703125 170.722656 191.9375 C 170.941406 192.175781 171.214844 192.359375 171.546875 192.492188 C 171.875 192.625 172.277344 192.691406 172.753906 192.691406 C 173.632812 192.691406 174.449219 192.46875 175.210938 192.023438 C 175.96875 191.578125 176.640625 191.023438 177.230469 190.351562 C 177.820312 189.679688 178.316406 188.960938 178.714844 188.191406 C 179.117188 187.421875 179.394531 186.714844 179.558594 186.070312 C 179.660156 185.664062 179.75 185.28125 179.828125 184.921875 C 179.902344 184.566406 179.941406 184.234375 179.941406 183.933594 C 179.941406 183.636719 179.886719 183.355469 179.773438 183.09375 C 179.664062 182.835938 179.523438 182.542969 179.351562 182.21875 C 179.246094 182.023438 179.140625 181.816406 179.039062 181.601562 C 178.933594 181.390625 178.839844 181.179688 178.757812 180.96875 C 178.667969 181.132812 178.566406 181.273438 178.464844 181.394531 C 178.359375 181.515625 178.203125 181.625 177.996094 181.726562 C 177.789062 181.824219 177.503906 181.914062 177.144531 181.992188 C 176.785156 182.074219 176.316406 182.144531 175.738281 182.203125 C 175.355469 182.328125 174.96875 182.523438 174.574219 182.789062 C 174.183594 183.058594 173.796875 183.367188 173.421875 183.726562 C 173.042969 184.085938 172.6875 184.472656 172.34375 184.890625 C 172.003906 185.304688 171.695312 185.730469 171.425781 186.164062 C 171.152344 186.597656 170.914062 187.023438 170.710938 187.4375 C 170.511719 187.855469 170.367188 188.234375 170.289062 188.582031 Z M 170.289062 188.582031 " fill-opacity="1" fill-rule="nonzero"/><path fill="#f7e7da" d="M 191.605469 195.691406 C 191.546875 195.703125 191.5 195.710938 191.457031 195.71875 C 191.417969 195.722656 191.375 195.726562 191.328125 195.726562 C 191.085938 195.726562 190.871094 195.675781 190.6875 195.570312 C 190.5 195.46875 190.339844 195.335938 190.207031 195.179688 C 190.074219 195.023438 189.972656 194.859375 189.90625 194.679688 C 189.835938 194.5 189.800781 194.328125 189.800781 194.167969 C 189.742188 193.921875 189.660156 193.578125 189.558594 193.125 C 189.453125 192.675781 189.335938 192.167969 189.203125 191.601562 C 189.066406 191.035156 188.929688 190.421875 188.785156 189.769531 C 188.640625 189.117188 188.5 188.460938 188.359375 187.800781 C 188.21875 187.144531 188.09375 186.5 187.976562 185.878906 C 187.863281 185.253906 187.761719 184.679688 187.683594 184.160156 C 187.625 183.789062 187.5625 183.445312 187.492188 183.121094 C 187.421875 182.796875 187.359375 182.488281 187.300781 182.191406 C 187.242188 181.898438 187.195312 181.609375 187.152344 181.324219 C 187.113281 181.042969 187.09375 180.757812 187.09375 180.46875 C 187.09375 180.144531 187.128906 179.835938 187.195312 179.539062 C 187.265625 179.246094 187.367188 178.984375 187.5 178.757812 C 187.632812 178.535156 187.796875 178.351562 187.984375 178.214844 C 188.175781 178.074219 188.386719 178.003906 188.621094 178.003906 C 189.082031 178.003906 189.449219 178.117188 189.722656 178.34375 C 189.996094 178.566406 190.207031 178.867188 190.355469 179.246094 C 190.507812 179.621094 190.613281 180.058594 190.675781 180.554688 C 190.742188 181.050781 190.789062 181.566406 190.824219 182.097656 C 190.871094 182.769531 190.945312 183.492188 191.050781 184.273438 C 191.15625 185.054688 191.269531 185.835938 191.398438 186.613281 C 191.523438 187.394531 191.65625 188.148438 191.789062 188.867188 C 191.921875 189.589844 192.039062 190.230469 192.144531 190.785156 C 192.492188 190.425781 193.097656 189.628906 193.96875 188.390625 C 194.394531 187.789062 194.792969 187.234375 195.15625 186.726562 C 195.519531 186.21875 195.863281 185.730469 196.1875 185.261719 C 196.511719 184.792969 196.820312 184.328125 197.109375 183.867188 C 197.398438 183.402344 197.679688 182.925781 197.953125 182.425781 C 198.222656 181.929688 198.488281 181.402344 198.75 180.839844 C 199.011719 180.28125 199.273438 179.65625 199.539062 178.976562 C 199.621094 178.835938 199.71875 178.691406 199.835938 178.535156 C 199.949219 178.378906 200.085938 178.238281 200.242188 178.117188 C 200.398438 177.996094 200.578125 177.894531 200.78125 177.8125 C 200.984375 177.734375 201.210938 177.691406 201.464844 177.691406 C 202 177.691406 202.359375 177.824219 202.550781 178.089844 C 202.742188 178.359375 202.839844 178.691406 202.839844 179.097656 C 202.839844 179.640625 202.742188 180.167969 202.550781 180.683594 C 202.359375 181.199219 202.058594 181.75 201.640625 182.339844 L 193.5 193.820312 C 193.335938 194.167969 193.167969 194.457031 192.996094 194.6875 C 192.820312 194.917969 192.652344 195.101562 192.484375 195.242188 C 192.316406 195.378906 192.15625 195.484375 192.003906 195.554688 C 191.855469 195.625 191.722656 195.667969 191.605469 195.691406 Z M 191.605469 195.691406 " fill-opacity="1" fill-rule="nonzero"/><path fill="#f7e7da" d="M 203.183594 188.304688 C 203.183594 187.808594 203.320312 187.386719 203.585938 187.039062 C 203.851562 186.691406 204.203125 186.460938 204.644531 186.347656 C 204.769531 186.089844 204.96875 185.746094 205.234375 185.3125 C 205.5 184.878906 205.828125 184.410156 206.222656 183.902344 C 206.617188 183.390625 207.066406 182.878906 207.570312 182.367188 C 208.074219 181.851562 208.628906 181.382812 209.234375 180.960938 C 209.84375 180.539062 210.496094 180.195312 211.195312 179.929688 C 211.898438 179.664062 212.640625 179.53125 213.429688 179.53125 C 214.097656 179.53125 214.683594 179.613281 215.179688 179.773438 C 215.679688 179.9375 216.089844 180.160156 216.414062 180.449219 C 216.738281 180.738281 216.980469 181.082031 217.144531 181.480469 C 217.304688 181.878906 217.386719 182.3125 217.386719 182.773438 C 217.386719 183.167969 217.335938 183.542969 217.230469 183.902344 C 217.066406 184.546875 216.765625 185.113281 216.328125 185.601562 C 215.886719 186.085938 215.371094 186.511719 214.773438 186.875 C 214.175781 187.238281 213.527344 187.542969 212.828125 187.785156 C 212.128906 188.027344 211.429688 188.230469 210.726562 188.390625 C 210.027344 188.554688 209.355469 188.679688 208.707031 188.765625 C 208.058594 188.851562 207.496094 188.917969 207.023438 188.964844 C 206.917969 189.171875 206.828125 189.433594 206.753906 189.753906 C 206.675781 190.070312 206.640625 190.378906 206.640625 190.679688 C 206.640625 191.351562 206.90625 191.871094 207.4375 192.242188 C 207.972656 192.613281 208.707031 192.796875 209.644531 192.796875 C 210.1875 192.796875 210.707031 192.734375 211.207031 192.613281 C 211.703125 192.492188 212.175781 192.335938 212.621094 192.144531 C 213.066406 191.957031 213.484375 191.746094 213.878906 191.523438 C 214.273438 191.296875 214.632812 191.074219 214.957031 190.855469 C 215.371094 190.578125 215.769531 190.34375 216.144531 190.152344 C 216.519531 189.960938 216.855469 189.867188 217.144531 189.867188 C 217.433594 189.867188 217.617188 189.9375 217.699219 190.082031 C 217.78125 190.226562 217.820312 190.378906 217.820312 190.542969 C 217.820312 190.632812 217.816406 190.722656 217.8125 190.8125 C 217.804688 190.898438 217.796875 190.96875 217.785156 191.027344 C 217.726562 191.328125 217.613281 191.628906 217.4375 191.929688 C 217.265625 192.230469 217.042969 192.492188 216.777344 192.710938 C 215.574219 193.65625 214.339844 194.332031 213.070312 194.738281 C 211.804688 195.144531 210.453125 195.347656 209.019531 195.347656 C 208.742188 195.347656 208.414062 195.328125 208.039062 195.292969 C 207.660156 195.257812 207.269531 195.1875 206.867188 195.085938 C 206.460938 194.980469 206.0625 194.832031 205.667969 194.632812 C 205.273438 194.4375 204.925781 194.179688 204.617188 193.855469 C 204.3125 193.53125 204.0625 193.132812 203.871094 192.65625 C 203.679688 192.183594 203.585938 191.613281 203.585938 190.941406 C 203.585938 190.398438 203.660156 189.789062 203.808594 189.121094 C 203.660156 189.097656 203.519531 189.019531 203.386719 188.886719 C 203.25 188.753906 203.183594 188.558594 203.183594 188.304688 Z M 214.054688 183.503906 C 214.078125 183.445312 214.085938 183.390625 214.085938 183.347656 C 214.085938 183.300781 214.085938 183.246094 214.085938 183.191406 C 214.085938 182.878906 213.972656 182.644531 213.742188 182.488281 C 213.507812 182.332031 213.230469 182.253906 212.90625 182.253906 C 212.398438 182.253906 211.898438 182.386719 211.40625 182.652344 C 210.914062 182.917969 210.449219 183.25 210.015625 183.648438 C 209.582031 184.046875 209.199219 184.476562 208.863281 184.933594 C 208.527344 185.390625 208.265625 185.800781 208.082031 186.171875 C 208.914062 186.101562 209.679688 185.988281 210.371094 185.835938 C 211.066406 185.679688 211.671875 185.480469 212.1875 185.246094 C 212.703125 185.007812 213.117188 184.742188 213.4375 184.445312 C 213.753906 184.152344 213.960938 183.835938 214.054688 183.503906 Z M 214.054688 183.503906 " fill-opacity="1" fill-rule="nonzero"/><path fill="#a41800" d="M 138.335938 186.753906 C 137.980469 186.753906 137.621094 186.632812 137.328125 186.386719 L 129.929688 180.25 C 129.257812 179.691406 129.167969 178.699219 129.722656 178.027344 C 130.28125 177.359375 131.277344 177.265625 131.949219 177.820312 L 139.347656 183.960938 C 140.019531 184.519531 140.109375 185.511719 139.550781 186.183594 C 139.238281 186.558594 138.789062 186.753906 138.335938 186.753906 Z M 138.335938 186.753906 " fill-opacity="1" fill-rule="nonzero"/><path fill="#a41800" d="M 139.429688 204.300781 C 139.382812 204.300781 139.339844 204.296875 139.292969 204.292969 L 129.710938 203.457031 C 128.839844 203.378906 128.199219 202.613281 128.273438 201.746094 C 128.351562 200.878906 129.117188 200.230469 129.984375 200.3125 L 139.566406 201.148438 C 140.4375 201.226562 141.078125 201.992188 141.003906 202.859375 C 140.929688 203.679688 140.242188 204.300781 139.429688 204.300781 Z M 139.429688 204.300781 " fill-opacity="1" fill-rule="nonzero"/><path fill="#a41800" d="M 130.472656 223.824219 C 129.925781 223.824219 129.394531 223.539062 129.101562 223.03125 C 128.664062 222.277344 128.925781 221.3125 129.683594 220.878906 L 138.019531 216.085938 C 138.773438 215.652344 139.738281 215.910156 140.175781 216.667969 C 140.609375 217.421875 140.351562 218.386719 139.59375 218.820312 L 131.257812 223.613281 C 131.007812 223.753906 130.738281 223.824219 130.472656 223.824219 Z M 130.472656 223.824219 " fill-opacity="1" fill-rule="nonzero"/><path fill="#a41800" d="M 233.957031 185.433594 C 233.503906 185.433594 233.054688 185.242188 232.742188 184.863281 C 232.183594 184.195312 232.277344 183.199219 232.949219 182.644531 L 240.347656 176.503906 C 241.015625 175.945312 242.011719 176.039062 242.570312 176.710938 C 243.128906 177.378906 243.035156 178.375 242.363281 178.929688 L 234.964844 185.070312 C 234.671875 185.316406 234.3125 185.433594 233.957031 185.433594 Z M 233.957031 185.433594 " fill-opacity="1" fill-rule="nonzero"/><path fill="#a41800" d="M 232.863281 202.980469 C 232.054688 202.980469 231.363281 202.363281 231.292969 201.539062 C 231.214844 200.671875 231.859375 199.90625 232.726562 199.832031 L 242.308594 198.996094 C 243.183594 198.910156 243.945312 199.5625 244.019531 200.429688 C 244.097656 201.296875 243.453125 202.0625 242.585938 202.136719 L 233.003906 202.976562 C 232.957031 202.980469 232.910156 202.980469 232.863281 202.980469 Z M 232.863281 202.980469 " fill-opacity="1" fill-rule="nonzero"/><path fill="#a41800" d="M 241.824219 222.503906 C 241.554688 222.503906 241.285156 222.4375 241.035156 222.292969 L 232.699219 217.503906 C 231.945312 217.070312 231.683594 216.105469 232.117188 215.347656 C 232.554688 214.59375 233.519531 214.332031 234.277344 214.769531 L 242.613281 219.558594 C 243.367188 219.992188 243.628906 220.957031 243.195312 221.714844 C 242.902344 222.222656 242.371094 222.503906 241.824219 222.503906 Z M 241.824219 222.503906 " fill-opacity="1" fill-rule="nonzero"/></svg>